<svg xmlns="http://www.w3.org/2000/svg" width="13" height="15" fill="none"><path fill="#9a8e7f" d="M11.5 12.9h-.2v.2h.3zq.2 0 .2-.2zm.2.7v.2q-.2 0-.2.3l.1-.3h.2zm-.6-6.2v.2zm.8 5.8h.2zm-1-5.4q0-.2.1-.1v-.4h.1v-.2l-.1-.2v-.1l-.1-.1v.6l-.1.1zm1 5.8v-.5h-.2z"/><path fill="#9a8e7f" d="m12 13-.1-.2v-.2l.1-.1v-.7l.1-.2.1-.2v-1.1h.1V9.2h-.1l.1-.6h-.1q.2-.2 0-.4.3-.2.2-.4h-.1l.1-1.7V3.8h.1v-.6H12V3l-.1.2V3h-.2l-.7-.1H9V3q-.1-.1-.2 0-.2-.2-.5 0-.4-.2-.7 0H5.9l-.1.2V3H3v.2V3h-.3.2v-.3H3l.5-.3q0-.2.2-.1.2-.3.6-.4v-.1q.2 0 .2-.2l.1-.2h-.2V1l.3-.2.5-.5L5 .1 4.9 0h-.3v.2q-.5 0-.8.4l-3 2.3-.6.4q0 .2-.2.1v.2l.3.3.3.2q.8.3 1.4 1l.3.1.5.4.4.3v-.1l.3.2h.2l.3.3h.2v.1h.1q0-.2.2 0l.3-.2V6q0-.3-.2-.4l-.3-.3c-.2-.1-.5-.6-.8-.6v-.1h-.2l-.4-.4-.3-.2h2.7v-.2.1h3.6v-.2.1h2.3v.3-.2l.1.2-.1.3h.2-.1v.4h-.1V5v-.2H11v.4q0 .2.2.2v.3-.6.3h.2l-.1.3v.1h-.1V6q-.2 0-.1-.2l-.2-.2V6h.3v.5l.2.4-.1.2v.5H11V8h.2-.4l.2.2v-.1.2l.1.3v-.4.2l.2.2h-.2l.2.2-.1.1.1.8v.2h-.1.1v.4h.1l.2.2-.2.3v-.4h-.1q-.2.6.1.7v.1h-.1v.6l.3.2q0 .3-.2.1V12h-.1v.4h.2v.2l-.2-.1v.3h.5v.2zm-.3-.5q.1 0 0 0m0-.4v.3h-.1v-.2zm.2 0h-.3V12zm-.2-.4v-.2zm0-5.2h-.2zm-.4-.6v.2zm.1-.9q-.2 0 0 0m.2-.2-.1.2zM8.3 3.7v-.1m3.5 0v-.1m-1.7-.2v-.1l.2-.2zm1.8-.1V3m-6.6-.2v-.1zM4 1.8l-.2.1v-.1zM4.7 0v.2z"/><path fill="#9a8e7f" d="M11.1 6.6h-.3v.1zm.6 6.6v.2m-.3-1.4v-.2zm.7 2.4v-.2zm-1-5.5v-.2h-.2zm.5 4.7-.1-.3v.3M11 6.1v.2zm.1-1.4v-.2zm1.1 9.3-.2.1zm-.9-4.5V9M4.7 1.3v-.1M11 4.3q-.2 0 0 0m.1 2.7"/></svg>