<svg xmlns="http://www.w3.org/2000/svg" width="100" height="105" fill="none"><g clip-path="url(#a)" opacity=".8"><path fill="#edf1f6" fill-opacity=".5" d="M0 0h100v105H0z"/><path fill="#3d6191" d="M102 81c-1 .2-2 1.6-3.2 2-3.1 1-7.4.6-9.8-.7l-2.6-1.8q.6.7 1.3 1l1.1.9c2.5 1.6 6.8 1.6 10 .7 1.4-.4 2-1.6 3.2-2M88 65.5h.2zm2.7 1.1q-1.5-.4-2.5-1 1.1.7 2.5 1m17-60.8L104.6 8c-3.8 2.3-6.9 3.6-8.6 8v.3c.4-.2.5-1 .7-1.4.7-1 1.4-2.3 2.4-3 3.8-3.2 9-5 12-9a9 9 0 0 0 1.6-4.2c.1-.7 0-2-.4-2.3l.1 2.3a10 10 0 0 1-2.2 4.8q-1.1 1.3-2.5 2.3m-10.4 78h.8q0-.2-.2-.2zm-22.7-.1a8 8 0 0 0-.4-4z"/><path fill="#3d6191" d="M76.3 82.7q-.5-2.2-1.2-4c-.4-1-1-3-1.7-3.7 1 2.9 3.5 7.2 2.6 11.3q-1 3.4-2.4 6.4c-.6 1.7-1.5 3.4-1.6 5.5q1-3.5 2.5-6.6c1-2.4 2.6-5.2 1.8-8.9M72 99v-.5zm2.2-19.2v-.2zm-1.1-5.2v-.2z"/><path fill="#3d6191" d="M82 88.2q1.2-.7 1.9-1.8c.7-1.2 0-3.4-.4-4.3L82 80.2c-.7-.7-1.4-1.7-2.2-2.2q.4.7 1 1.2c1.1 1.3 2.4 2.6 2.9 4.5.7 3-2 4.4-3.6 5.6-2.7 2-6 4.2-7.4 7.6l-.4 1.7v.5l.6-1.8q.8-1.8 2-3.1 1.4-1.5 3.2-2.7zM94.1 84q.1.3.2 0m-.3.2q-.9-.4-1.9-.3c.3.3 1.5.2 1.8.3M76.6 95.4c-1 1.1-2.5 2.3-2.8 4 .7-1.6 1.9-2.6 2.9-4zM91 85.8h-.4l-1.1.2zm-17.2 19 .5 1.2h.2c0-.2-.5-1-.7-1.2m-.5-35.2-.2-.1v.2zm22.2-5-1.2-.2q.5.2 1.1.2M84.7 44.2c-.7-.6-3.5-1.1-4.9-1l1.3.1zm11 20.4h.4zM88 79.3l-.1-.2-.7-.2zM72.5 37.2l.3-.3h-.1l-1.6 1q-2.3 1.8-3.5 5c-.8 2-.8 5-.1 7.2 1.2 4.1 4.5 8 6.7 11.4 1.2 1.6 2 3.7 3.4 5.1h.1q-.9-1.9-2.2-3.6c-2.6-4.1-6-7.8-7.7-12.7s.4-8.3 2.7-11.2q.8-1.3 2-1.9m12.5 14h-.2v.1zm14.7 13.4a20 20 0 0 0 7.8-6.3 34 34 0 0 1-6.8 5.6 7 7 0 0 1-2.6.7h-1.9v.1q1.8.2 3.5-.1m-7.9-8.3-.2.5h.2zM93 60l-1.3-2.1-.4-1q0 .8.4 1.3a5 5 0 0 0 2.8 2.8h.2c-.5-.4-1.3-.4-1.7-1m-.3 20.4q-2-.2-3.4-.7c-.3-.1-1-.5-1.2-.4v.1c1.4.3 2.4 1 4 1.2 3.1.6 6-.5 8-1.4l1.5-.9v-.1h-.1c-1.4 1-5.9 2.7-8.8 2.2m.6.8q-2-.2-3.7-.6l-2-.7c.9 1 3.5 1.3 5.3 1.5.8.2 1.8-.3 2.3 0-.1-.5-1.2 0-1.9-.2m2.1.1h.2v-.1zM90 45.6c-.2-.3-1.2-.2-1.6-.3q-2-.6-4.6-1c.7.7 4.4 1 5.6 1.3z"/><path fill="#3d6191" d="m97-9 3.3 4c.8 1 3 2.4 2.6 4.4-.6 2.9-4.6 4-6.8 5.3a22 22 0 0 0-7 6.7c-2.7 4.3-1.8 10.2-.3 15 .7 2.1 2.3 5.6.8 8.2a4 4 0 0 1-3.1 2.1l-2 .3-.2.2q2.2.1 3.8-.5c2-.9 3-4 2.3-7l-1.7-5.2q-.4-1-.5-2l1 2.4.9 1.6c1.4 2.4 3.6 10-.5 11.1-1.9.6-4.3-.2-5.8-.5-2.1-.5-3.8-1-6-1.4q-1-.3-2.2-.1-2 .3-3.6.9c-.7.3-2.4 1.1-2.8 1.7l-2.1 2.4q-1.2 2-2.2 4.2c-.4.9-1.2 2.2-1 3.8.6 2.5 1 4.7 2.2 6.6.5.7 1.8 2.1 1.7 3h.1c-.6-2.4-2.4-4-3-6.5l1 1.9 1.9 3.4q3 4.5 6.4 8.7l4.2 5.2q2 2 3.7 4.2l2 2.6q.2 0 .3.2-1.5-1-2.6-2a32 32 0 0 1-4.9-5.1L74.7 68c0 .6.7 1 1.1 1.5l.7 1 1.6 1.9q3 3.7 7 6.4c1.6 1.1 2.8 2.4 4.8 3.2 2.4 1 6 .8 8.2-.2 2.7-1.2 4.5-3.5 6.7-5.2l4.7-3.4 3.5-3q1.1-.8 2.1-2c3.1-3.7 5.2-8.3 8-12.3q1.5-2.4 3.6-4c1.1-1 2.4-2 3-3.2.7-1 .3-2.8 0-3.9-1-2.7-2.1-5-2.8-7.8-.3-1.3-.6-3.8.1-4.8 1.5-2 8.4-1.3 11.2-.8 2.1.4 4-.1 5.6-.5l3.3-.7c2.6-1 6.5-3.4 7-6.5-.4.2-1.2 2.1-1.5 2.5-1 1.2-3.2 2.7-4.8 3.3l-2.5.7a7 7 0 0 1-6.7-2.1q-1.6-1.4-2.8-3l-1.6-3.8q-.7-1.6-1.8-2.8a12 12 0 0 0-5.8-3.5l-3.2-.7 1.9-.1c3.7-.7 6 1.3 7.6 3.2q1 1.1 1.9 2.6c1.8 3 2.8 7.2 5.9 9a7 7 0 0 0 4 .6l2.7-.4V29c-1.7.2-4.2.7-6 0-3.5-1.4-4.7-6.7-6.7-9.8q-.6-1-1.4-1.8c-1.6-2-4-4.4-8-3.7q-1.1 0-2.1.4l-1.7.6c-2 .8-5.2 2.7-6.6 4.1q-1 .8-1.1 2.5l.1-.1c-.4 1.5.3 3.5.7 5q1.3 4 1 9.3 0 2.8-.6 5.5c-1.6 7.4-5 12.4-10 16.3-2 1.5-6.4 4.6-9.9 3.1-1.8-.7-3.6-3.2-1.9-5.4 1-1.5 5.7-2.4 7.5-3.5q5.5-3.2 7.3-10.1c1.4-5.7-.2-12.2-1.2-17.3-.7-3.6.2-7.6 2-9.3v-.2c-1.7 1-3.2 5-2.6 8.1l1.5 9c.2 1.3.6 4.3.3 6l-.5 3.6a15 15 0 0 1-7.3 9.9q-1.3.8-3 1.5c4.6-1.8 7.4-6.6 9-11.3a13 13 0 0 0 .9-6l-.8-4.6c-.7-3-1.8-8-.8-11.4 1-4 3.9-5.3 6.8-7.3 3.3-2.2 7.6-5.5 9.4-9.1 1.2-2.3 2.6-7 1-9.8a25 25 0 0 0-5.1-5.4l-2.2-2h-.6q.5.8 1.2 1.4a32 32 0 0 0 4.2 4q1.4 1 2.2 2.6c1.1 2.8-.1 6.4-1 8.5a16 16 0 0 1-5.6 6.4l-3.7 3c-2.8 1.8-5.8 3.3-6.9 6.9q-.7 2.1-.4 4.5c.2 1.4 0 2.6.2 3.8 1 4.9 2.5 10.3.5 15.2a19 19 0 0 1-6.1 8.7c-2.7 2-7.2 3.2-9.2 5.8a4.3 4.3 0 0 0 .5 6c4 3.1 9.3 1.4 12.5-1q4.7-3.9 7.7-9.3 2.2-3.4 3.7-7.6 1-3.3 1.4-7l.1-2.2c.5-2.8-.3-7.4-1-9.7-.3-1-1.2-3.8-.5-4.8 1-1.6 4.1-3.2 6.4-3.7 3-.6 5.7 1.3 6.8 2.8.4.5 1.1 1.4.8 2.5 0 .4-.9 1-1.5.7l-1.4-1c-.8-.6-3-2-4.4-1.8q-1 .1-1.7.4v.2c.5-.1 1.1-.5 2-.3 1.4.2 4.7 2 5.3 3h.1c-2-1-3.3-2.7-6.4-1.5q-1.2.5-2 1.4c-2.2 3.7.6 11.3-.4 16.2a45 45 0 0 1-8.1 19.4 24 24 0 0 1-9.4 8q-2 1-4.3 1.5c-2.8.7-6 0-7.8-1a34 34 0 0 1-10-11.3c-1.2-2-5.2-6.7-3.3-10 .8-1.2 3-1.7 5-1.4 3.3.7 7.2 2.2 11.2 1.2-5.6 1-9.7-2.8-15-1.4 1.3-.9 4.4-.5 6-.2l2.7.8c3.8 1 8 .7 10.6-1 .7-.5 1.6-1.2 1.9-2-.8 3.8-4.9 7-9.2 6.4q-3.7-.3-7.3-1c-1.4-.2-3 .3-3.6 1-1 1.4 1.6 4.8 2.1 5.8 2 4 3.4 7.3 6.8 9.7-3-2.3-4.3-5.8-6.5-9.5-.5-.8-2.8-4.2-2.4-5.5.6-1.7 4.5-1.1 6.2-.7 1.4.2 4.2 1 5.7.7 3-.6 5.6-1.4 7-3.4 1-1.2 1.3-2.5 1.9-4l1-2a19 19 0 0 0 .2-10.3c-1-3.1-4.5-8-3.4-12.3.5-2 2.6-3.5 4-4.6q1.5-1.2 3.2-2.2l3.7-1.8 3.6-2.4c1.5-1 3.3-2 4.2-3.5.7-1.2 2-4.3 1.5-6.3l-1-1.8Q114-6.7 112-7.9l-3.2-2.3-1-.7q1.5 1.5 3.3 2.6l3.2 2.9c-.1-.8-1.3-1.3-1.7-2 1.1.8 3 3 3.4 4.4q.2 1.6-.3 2.6a9 9 0 0 1-3.2 5.1l-1.1 1 1-1.1v-.2l-2 1.8-4 2.4-1.7 1q.9-.7 1.9-1.2l3.8-2.7a12 12 0 0 0 2.3-2.7c.8-1.2 1.8-3.8 1-5.7q-.6-1.3-1.5-2.2c-1.8-2.3-4-4.1-6-6.3-.8-.8-2-1.7-2.4-3h-.5c.3 1.5 1.6 2.6 2.5 3.5Q109-8 111.5-5c.8 1 1.8 1.7 2 3.4.6 2.7-2 5.7-3.3 6.8q-1.7 1.6-3.4 2.8l-5.4 3.3-2.7 2.3c-1 .9-2.6 2.2-3 3.7-1 3.7 1 7 2 9.4 1.8 4 2.9 9.4.8 14-1.2 3-5.6 5.9-10.5 5L80.5 44c-4.3-.7-7.1 2.5-6 6.4 1 2.7 2.7 4.9 4.1 7q2 3.3 4.3 6L85 66a13 13 0 0 0 7.9 4.8c1.8.3 4-.2 5.2-.7q4.3-1.5 7.6-4.2l1.8-1.6q3.4-3.1 6.2-7a32 32 0 0 0 6.2-11.5q.3-1.4.4-3.2c.1-.8.2-2 0-2.8l-.1-4.3-.5-3-.6-2.1h-.1l.8 4.4.2 3.5q.3 2 0 4 0 1.5-.2 2.8a31 31 0 0 1-6.2 11.8 45 45 0 0 1-9 9.4q-3.4 2.8-8.2 4a11 11 0 0 1-10-3.1q2.2 1.6 5.5 2.5c4 .9 8.8-1.4 11-2.7 8.5-5.2 13.4-14.7 15.7-26 .7-3.3.3-7.7-.2-10.8-.3-2-.1-4.7.6-6q.7-.9 1.9-1.3c3.5-1.4 6.1 1.9 8.2 3.1 1.5.9 3.5.1 4-1.1.6-1.6 0-3.2-.7-4.2-1.4-2.4-4.7-5.9-9-5q-3 .6-5 2.1l-3 2q-.8.7-1.4 1.5c.2-2 2.6-3 4.1-4l4.2-2.3c1.6-.6 4.5.5 5.7 1q3.4 1.6 5.4 4.8l1.1 2.9a9 9 0 0 0 2.7 3.7c1.2 1 3.7 4 6.1 3.3-.4.6-4 .7-5 .5-3.3-.6-10.2-1.6-11.9 1-.6 1-.3 3.5 0 4.7.5 2.8 1.7 5 2.6 7.7.4 1.3 1 2.6.3 4-.4 1-1.6 1.8-2.5 2.5a20 20 0 0 0-5 5.7l-1 1.6q-2.7 4.9-5.9 9.3-1.3 1.6-3 2.9l-6.4 4.9c-2.2 1.7-4.2 3.9-6.6 5.4q-1 .8-2.6 1.1c-5.7 1.6-10.1-2.2-12.4-5.2l-1.5-2 1.6 1.5q2.3 1.5 5.3 2.3c3 .7 7.9 0 10.2-1q11.2-4.5 17.7-13.8l3.1-4.7.5-.7 1.1-1.8c-.9.6-1.8 2.4-2.4 3.4q-2 3-4 5.6a39 39 0 0 1-15.8 11.6 16 16 0 0 1-11.6-.6c-4-1.8-7-5.2-9.4-8.5l-2-2.1q-3.4-4.1-6.4-8.5c-1.6-2.6-4.2-6.1-4.2-10.2 0 4 1.6 6.6 3.1 9.2a102 102 0 0 0 9 11.8q3.5 4.8 8.6 8.1 1.8 1 4 1.7l3 .3c-.6.3-2.5.1-3 0-3-.5-5-1.5-7-2.8a34 34 0 0 1-7.3-7.8l-4-4.8a88 88 0 0 1-5-7.4c-1.1-1.9-3.8-5.7-2.8-8.8L66 44c1.7-4 4.6-7.6 10-7.8 2.4-.1 4.3.6 6.1 1.2l4 .8c2.3.4 4.6.1 5.7-1.2.9-1.2.6-5.4.2-7-1.1-4.2-5.2-8-4.1-13.6q.3-1.7.9-3.3A20 20 0 0 1 96 5.4c2.3-1.4 7.5-3.4 8.2-6.1.3-1.5-1.7-3.2-2.3-4a58 58 0 0 1-4.6-6.5c-.5-.8-1.3-2-1.4-3h-.4c0 .8.6 1.5.9 2.1q2 3.8 4.6 6.8c.6.9 3 2.9 2.8 4.4q-.3.9-.7 1.4c1-2.8-1-4.2-2.4-5.6A22 22 0 0 1 96-12c-.3-.6-.9-1.4-1-2.2h-.5q.4 1.5 1.2 2.6zm20.8-2.6q1.2.9 2.2 2zm-8.5 65.7-2.9 3.7c-2.5 3.1-5.3 5.8-10.7 6q-2.2.1-3.7-.7c-3-1.8-3.2-5.2-.3-7.1l1-.7c-2.2 3.7 2.3 7 6.5 6q1.5-.5 2.6-1.3c3.3-2 6.1-4 8.3-7.1.1.2-.7 1-.8 1.2m13.5-38 1.2-.2 2 .1c2.8.7 4.8 2.7 6.1 5 .6 1 1.3 3.4 0 4.4-2.1 1.5-3.5-.9-4.8-1.5v-.1c2.9-.4 1.6-2.9.6-4.3-1.5-2-5-3-8.3-2.2.7-.5 2.3-1 3.2-1.2"/><path fill="#3d6191" d="M92.1 36.1c1-.7 1.2-4.2.9-5.7-.7-2.8-2-5-3-7.5q-.6-1.7-.8-3.7c-.4-2 .4-4.8 1-6 .1-.5 1.1-2 1-2.3q-.6 1.5-1.5 3-.5 1.8-.8 4.1-.1 1.4.2 2.3.2 1.6.7 3l2.3 5.3c.5 1.4 1 3.5.6 5.5zM19.5 13.3l.2.1-.3-.3z"/><path fill="#3d6191" d="M31.7 27q4.8-1.7 8.5-4.2c4-2.5 7.2-5.3 9-9.9l.6-2v-.3l-1 2.7a21 21 0 0 1-3.1 4.7q-2 2.2-4.6 3.8a30 30 0 0 1-11.4 5.3c-6.2 1.4-14.6-.4-17.4-3.8-1.8-2.2-3.7-4-4.6-7-1.2-4 .7-10.8-4.4-10.8l-1.6.3.1.1c1.4-.4 3.3 0 4 .8 1.4 1.7.8 5.7 1.4 8.2a16 16 0 0 0 4 7.5c3.6 4.6 12.5 7 20.5 4.6m5-20.3V7c.2-.4.7-2 .3-2.5 0 .6 0 2-.3 2.3"/><path fill="#3d6191" d="M35.4-12.6q2.2 1.3 3.8 3.3a23 23 0 0 1 1.4 21.8q.8-.9 1.1-2C44 4.7 43-4.7 40-8.8q-1.3-1.8-3-3.1c-.8-.6-2.9-2.3-3.8-2.4.2.5 1.8 1.3 2.2 1.6M60-9l.8 4.8 1.4 7c.6 3.2.7 6.5 3 7.9l.1-.1-.9-1.2c-1.4-2.1-1.3-4.2-2-7.2L61.7-1l.5 1.9L64 5.3c1.5 3.5 4 6.2 6.5 8.7.7.7 3.6 4.3 5 2.4 1.6-2.2 1.2-6.9-.3-8.7C73.9 6 71.6 4.9 70 3.5c-1.4-1-2.2-3-3.1-4.5a22 22 0 0 1-4-13.1h-.2c-.3 7.5 3.1 12.3 6.3 17q-1.7-1.1-2.7-3-1.8-2.1-3-5-.4-1.7-.6-3.5-.6-1.8-.5-4.1H62c-.2.4 0 1.3 0 1.8q.2 2.3.8 4.4c1 4.8 4 8.3 7.3 10.7 1.6 1.2 3.6 2.2 4.7 3.8q.8 1 1.2 2.7c.3 1.3-.5 5.3-1.3 5.6s-1.6-.5-2-.8a32 32 0 0 1-3.8-4l-2.5-2.9A28 28 0 0 1 62.7 1L61-5.6c-.3-1.2-.2-2.5-.6-3.7L58.7-14h-.5l.7 1.7zm4.8 28.9c-.7-1.8-5.5-4.4-8.3-4.3-1 .4-2.1.2-2.8.8L56 16c3.8-.7 6.8 2.5 8.8 4M37.4 9.2l.3-.7zM24.8 29q-2.3 0-4.4-.3c.3.5 3.6.5 4.4.4"/><path fill="#3d6191" d="M67 4.3q-1.5-1.8-2.6-4c-.3-.6-.6-1.8-1.1-2.2 1 2.3 3 6.9 5.1 7.9-.1-.7-1-1.2-1.5-1.7m-1.6 6.6v-.2h-.1zm-10.9 3.3h.2l-1.8-3.3c.2 1.1 1 2.3 1.5 3.3zm21.5-3c-1-1.9-3.5-2.6-5.2-3.7-.6-.4-1.4-1.3-2.1-1.5l-.1.3c.9.2 1.5 1 2.3 1.6 1.6 1 4.1 1.7 5 3.4"/><path fill="#3d6191" d="m70.7 8-2-1.6c1 1.3 3 2.3 4.5 3.1l2.5 2c.1-.4-1-1-1.3-1.3-1-1-2.5-1.4-3.7-2.2M54.2-2.9c1 4.4.2 10.6 2.2 14 1.3 2.2 3.5 3.4 5.5 5a15 15 0 0 1 3.3 4c2.1 3.6 4.1 6.5 2.8 12.5q-.2 1.6-.9 2.8l-.8 1.2c2.6-1.9 3.3-9 1.7-12.6q-.7-1.6-1.7-3.1-1.7-3.2-4.1-5.5c-2-1.6-4.3-3-5.6-5.2-1.7-3-.6-8.4-1.3-12.5q-.6-4-1.8-7.3l-2-4.6h-.4l2.5 6q.9 2.8 1.3 6l.3 2.7c-.3-.4-.2-1.4-.3-2l-.5-2.7q-.9-3.5-2.2-6.7l-1.5-3.3h-.4l1.9 4.2q1.3 3.4 2 7.1M58.7 13q1.4.8 2.4 1.8-2.1-1.2-3.7-3zM52.4 2.7v-.1M54 13.9c-.7-.9-1.4-1-1.4-2.7-.2 1.2.3 2.4 1.4 2.7M52.6 11c.3-.7-.2-1.4 0-2h-.2zM15.8 5.6q0 .7.3 1.3V7c.1-.3-.1-1.2-.3-1.4m.4 1.9V7zm-.8-3.7c-.5-1.6-2-4.3-3.6-4.8L13.4.4q1.8 2.1 2.3 5.1h.1z"/><path fill="#3d6191" d="M35.4 8.4a14 14 0 0 0-1-7.8c-.2-.5-.5-1.4-1-1.5Q34.5.9 35 3.5v2c.2.7.2 2.1 0 2.8-1 3.1-6.7 7-10.7 5.3l-2-1.4c-2.3-2-2.2-4.8-3.4-7.8a16 16 0 0 0-8.6-9Q8.5-5.6 6-5.7l-4.6.2c1.3.5 4.3-.2 6.2.2 3.2.7 6.7 3 8.5 5.3q1.6 2.2 2.6 4.9c.7 2 .9 4.3 2 6q.6 1 1.6 1.7.9 1 2.4 1.6c4.6 1.2 10-2.6 10.7-5.8m.8-8.2.1-.1m.3 10.6h-.1m-12.6 8h-.3zm-4.2-5.3c0 .4.6.8.8 1a2 2 0 0 0-.8-1m3.3 5.1h.1c-1.2-.1-2-.9-2.8-1.5.1.6 2 1.7 2.7 1.5"/><path fill="#3d6191" d="m17.3 9-.2-1.2c-.8-3-1.2-6.6-3.3-8.2Q14.4.8 15.3 2q.8 1.7 1 3.6c.3.8.5 3 1 3.4m54.3 54.2v-.1l-2-2.6c-.5-.7-1-1.7-1.6-2.1.5 1.3 1.6 2.2 2.4 3.3zm2.1 2.4c.1.5 1.5 2.2 2 2.4l.1.2V68c-.9-.6-1.2-1.8-2.1-2.4m9-30.2-.2-.1zm-6.9 32.9h.2l-.1-.1zm7.8 11.5v.2h.2zm-.1 0-.2-.2zm-.7-44.4-.1-.1zM76.1 73l.9 1a2 2 0 0 0-.9-1m0 0c-.1-.4-2.1-2.7-2.5-3 .3.8 1.8 2.4 2.5 3m8.4 15.7-.4.3zM74.7 27c-.8.6-1 2-1.4 2.9l-1.8 2.8a14 14 0 0 1-3.6 4 9 9 0 0 0-2.7 2l1.4-1L69 36c1.6-1.3 3-3.2 4.2-4.8.6-1 .8-2.5 1.6-3.5.3-.6 1.4-.7 2.3-.5 1.5.3 3.1.7 4.4-.2 2.4-1.8.6-4.9 1.2-8.2a14 14 0 0 1 1.4-4.6c.2-.4 2-3 2-3.2-1.7 2.2-3.2 4-3.8 7.4-.5 2.6.9 5.9-.4 7.6-1.9 2.6-5.1-.5-7.1 1m-7.1 36.3q-1.6-2.2-3.6-4 .6 1 1.5 1.8l3 3.2c.5.6 1.4 2 2 2.3-.6-1.3-2-2.2-2.9-3.3"/><path fill="#3d6191" d="M85.4 31.7c-.2-2.5-1.5-4.6-2.7-6.2v.1c0 .7.6 1 .9 1.5a12 12 0 0 1 1.6 4.3c.4 2-3.5 2.3-4.9 1.5v.2c1.4.8 5.3.4 5.1-1.4"/><path fill="#3d6191" d="M83 35.3c.3.3 1.2.1 1.6.1 1.7 0 3.4-1.6 3.7-3 .4-1.6-.5-3.7-.8-4.8q-.7-3.2-1-6.8c-.2-.7 0-1.8 0-2.4q.4-2.9 1.3-5l1.5-3a17 17 0 0 0-2.7 14l1 4.7c.3.8.8 2 .6 3-.5 2.2-2.6 3.3-5.3 3.2M74.5 68q-.4-.8-1.2-1.6l-3-3.5a75 75 0 0 1-6.3-9c-1.1-1.9-2.3-5.7-1.2-8.5q1-2.2 2.5-3.9a14 14 0 0 1 3.7-3.2v-.1a14 14 0 0 0-6.7 7.7c-.6 2 0 5 .7 6.5 1.9 4.8 5.5 8.5 8.7 12l1.6 2.1.8.8zM92.3 6.2q-.9 1-1.6 2.3c.5-.3 1.4-1.8 1.7-2.3m-3.3.2q1.2-1 2.2-2.4L93 2.4c-1.2 1.2-3.3 2.4-4 4m5.6-2.2-1.2.7-.3.4zm-5.8 82.1h-.2l-1.5.6q-1.5.7-2.6 1.9c.7-.3 1.2-1 1.8-1.3zM75.6 2.7a43 43 0 0 0 6 2.2q.7.2 1.6.2c-.1-.4-1-.4-1.4-.5l-3.4-1q-4.2-1.7-7.4-4c-.8-.5-2-1-2.4-1.9l4 2.6C75 1.7 78 2.3 81 3c2.5.6 6 .2 7.6-.8 2.2-1.3 3.6-4 4.2-6.9.3-1.3-.3-4-1.1-4.2l.3 1-1.5-2.9 1.1 1.5L93-7.7c.9 1.4 2 4.5 1 6.7-.7 1.9-2.8 3.5-4.5 4.5q-1.6.8-3.9 1.1c-.8.2-1.9 0-2.3.5-.8 1.2-.2 2.5-.6 4-.5 2-1.8 3.6-2 5.8h.1c.4-.3.4-1.2.6-1.6q1-2.1 1.7-4.4c.2-1.1-.2-2.3.3-3.1s3.7-1 4.8-1.3c2.2-.7 4.4-2.6 5.6-4.3s1.1-4.3.3-6.2c-1.1-2.8-4.3-4.8-4.6-8.2H89c1.3 4.1 4 11-.4 13.8A16 16 0 0 1 78 .6C72.3-.8 67.6-2.9 65.5-8c-.4-1-1-4.5-.6-6.2h-.4c.3 1.7-.1 3.6.3 5 1.3 5 5.2 7.9 9.7 9.4C80 1.9 88.4 2.4 90.7-3c.4-1 .9-2.9.5-4.6l-.7-2.5q.8 1 1.2 2.3c1.6 4-1 8.7-4.1 10-3.3 1.3-8 .1-10.7-.8-7.3-2.6-13.4-5.8-13.2-15.7H63c0 9.5 6 14 12.5 17M92.1-7.5q.4.6.4 1.7zm-3.7 90.4h.2zm.5.1h-.2zm-1.3-.5-.5-.3z"/><path fill="#3d6191" d="M100.7-.6Q100 .3 99 1q-1.3 1.4-2.7 2.4l-1.6.8h.1l.2.1c.2-.4 1.1-.6 1.5-.9L97.9 2c.8-.6 2.6-1.6 3.1-2.5.1-.6-1.9-3-2.2-3.5Q97-6.2 95.6-8.7l-.9-2.9-.8-2.6h-.4a24 24 0 0 0 4 8.9c.7 1 3 3.5 3.2 4.7m2.6 13.8c.8-.3 1.5-1 2.5-1.2l-.1-.1-1 .4q-2 .7-3.6 1.8c-2 1.5-3.3 4.8-3.7 7.8-.2 1 1 3.8 1.3 4.4 0-1.5-1-2.4-1-4-.2-1.4.6-2.8 1-3.8 1.1-2.9 1.8-4 4.6-5.3"/><path fill="#3d6191" d="m102.3 43.8.4-2.8c.7-4 0-8.6-.8-12l-1.1-6.1v-1.7c-.6 2 .4 6 1 8.2l.8 4.9c.3 1.4 0 2.9 0 4.5.1 1-.2 4-.6 4.9a20 20 0 0 1-7 7.4l-1.2.4c-1.2.7-3.2 1.9-4.7 2.2.8.3 4.3-1.8 5.2-2.2 2.8-1 7-5 8-7.7M88.5 54l.3-.1.1-.1z"/><path fill="#3d6191" d="m95.6 50.3 1-.5v-.3q.3 0 .4-.3 1-.9 1.6-2l.6-1.2-.1-.1c-1.1 3.4-4.7 5.3-8.6 5.9-1.7.2-4-.4-5.4-.6.7.6 2.1.4 3.2.6 3 .5 5.5-.4 7.3-1.5M86 57.7q.4-.4.4-1l-.4.9m-.2.8v.9c.2-.1.1-.9 0-1m.7 3-.4-1zm.9-5.9 3.3-1.7h-.1c-1.5.8-3.5 1.2-4.2 2.8zM86 60.3l-.2-.8zm10.6 37.6-.6.7q.4-.3.6-.7m-2.6.4c-1.1 1.6-2.6 3-2.2 5.8.1-.5 0-1.7.2-2.3a9 9 0 0 1 2.1-3.3zm-.6 4.4-.2.7v.2q.3-.4.3-.9zm2.2-3.7.5-.4zm-2.1 3.5q.7-2.1 2-3.5c-1 .9-2 1.9-2 3.4m.4 8.6c-.5-1.6-1.7-3.2-2.5-4.7q-.2-.9-.7-1.6c.2 2.1 2.5 4.4 3.1 6.3m37.2.6c-.8-3.8.3-8.8 1-12.2.4-2.2.5-4.5 1.3-6.4a24 24 0 0 1 7.8-9.7c1.6-1.2 3.7-2.3 5-4 1.4-1.9 1-5-.7-6.3-4.2-3.3-8.8.3-11 3.1-3.2 4-7.2 8-9.8 12.5-.8 1.2-1.1 2.7-1.9 3.9-1.2 2-3.4 5.9-5.5 6.7-1.7.7-4.8-.5-6.4-.9-1.5-.3-3.1 0-4.9-.3-4.2-.7-8 1.2-9.6 3.4q-1 1.4-1.7 3.2c-.9 3.2.6 6.3 1.6 8.6l.8 1.5v2l.2 2.4h.3l-.1-4c.5.5 1.5 3 1.6 4h.5c-.2-2.5-1.9-4.3-2.8-6.3l-1.3-3c-.2-1.2 0-2.2-.2-3.4q0-1.6.6-3 .6-1.5 1.4-2.3c2.4-3 9.4-3.2 14.2-2.1 1.5.3 3.8 1.3 5.5.9 2.4-.6 3.6-3.1 4.8-5l1-1.6.1-.1c-1 3-1 6.8-1.8 10l-1 7a11 11 0 0 0-.2 3.1l.4 3.4.6 2.4h.5l-.6-2-.5-3.8q-.1-1.8.2-3.5.5-3.7 1.2-7l1.5-9.4c1-3.5 2.8-6 4.8-8.5q1-1.7 2.4-3c-2 3.2-4.3 6-5.5 9.9-.6 1.9-.2 4.4-.6 6.2l.1.2c.4-2.2.1-4.5.7-6.4q1.5-4 3.8-7.1 3-5.1 7-9.3c2-2 6.8-5.3 9.6-1.6 1.4 1.7 1.3 3.9 0 5.5s-3.4 2.6-5 3.8c-3.2 2.5-6.4 6-7.9 10.3-.7 2-.7 4.3-1.1 6.5-.7 3.4-1.7 8-.9 11.8a27 27 0 0 0 1.4 4.8c.4.8 1.2 1.7 1.2 2.6h.6c-.2-1-1-2-1.3-3q-.9-2.2-1.3-4.5m-36-4 .1 1.2-.1-3.1q0-.8.2-1.4l-.2 1.4zm-.9-9.4.6-.6q-.4.2-.6.6M1.1 57.6c.9-1.7 1.6-4 .2-5.1l-.3-.2Q.7 52 0 52v.3c.5.5 1.3.6 1.6 1.3.4 1-1 4.9-1.6 5.2v.6q.2 0 .3-.2l.3-.4zM0 46.8v.1zm4 0-4-2v.3L4 47zm12.2 4.6c-.5-.4-2.3-.7-3.1-1l-3.7-1.2-1.8-.8q.8.6 2 .9c1.8.8 4.5 2 6.6 2m4.9 12.1L21 63v.2zm-12 .9-.4.2zm.2-.1 1.8-.4-.1-.1z"/><path fill="#3d6191" d="M0 60q.9-.6 1.3-1.5c2.1-2.9 3-6.4-1.3-7.7v.8q.2 0 0-.1h.6-.4l.8.8.3.2.1-.1-.7-.9c.7 0 1 .6 1.3 1 1.5 2.2-.2 4.5-1.3 6l-.1.2-.3.4q-.3.4-.3 1"/><path fill="#3d6191" d="M7.6 60.3c2.3-1 5-1.3 5.7-4 .3-1.4-.4-2.5-1-3.1-1.8-1.8-5.9-2.6-8.6-3.4-1-.4-2.4-1-3.7-1v.5q2 .4 3.9 1c2.5.9 5.4 1.4 7.4 2.8.8.5 1.8 1.3 1.5 2.9q-.2 1.2-1 1.9-1.6.9-3.3 1.5l-5.2 2.3-3.3 2v.5c1-.3 2.5-1.5 3.4-2zm22.1 15.5-.8-1c0 .4.6.9.8 1M13.6 63.7c.5.3 1.9.4 2.3.5q1.7.5 3 1.7a14 14 0 0 1 4.3 6l1.2 2.7q-.5-1.7-1.3-3.2c-1.8-4-4.4-7.2-9.5-7.7m10.3 4.1q.4 1 1 1.8l1.2 1.9c.7 1 2 2 2.6 3.3h.2l-2.7-3.4q-1-2-2.3-3.6M4.6 47.2l.7.2zm1.6.6.3.1zm-6-.8c.4.5 1.7.7 2.4 1l3.7 1.3q1 .5 2.2.8l-2-.9-3.4-1.1zm4.2 0h-.3l.1.1h.2m25.7 1.5v.2q2.2-.6 4.4-1.5-1.2.2-2.3.6zM2 90.6l-1 2v.1c.2-.3 1-1.8.9-2.1m9.3-5.6c0-1-1.7-1.5-3-1.4l-.9.3C5 85.3 4.4 88 3.1 90.4c-1.2 2-3.2 4.9-3.1 8 1-3.9 2.7-6.8 4.7-9.6.7-1.1 1.3-2.6 2.7-3 1-.3 1.7.4 2.4.6-.1-.4-2-1-2.6-.7-1.1.3-3 2.8-3.4 4h-.1c.4-1.6 2.6-5 3.9-5.7s3 .1 3.4 1c-.1 1.4-2.7 4-3.5 5C4.8 93.7 3 95.3 2 100.8c.4-.4.4-1.3.6-1.8l1.2-3.3c1.3-2.8 3.9-4.9 5.6-7.4.4-.6 2-2.2 1.8-3.1M2.5 64.6C2 65 .1 65.6 0 66c1-.2 1.5-1 2.3-1.2zm5 16.6.9-1-.2-.1a18 18 0 0 0-3.7 6.4v.3l.8-1.5q1-2.2 2.2-4m1.5-.5q.2 0 0-.1M.3 71.3c.4-.5 1.2-.8 1.4-1.5h-.1zM4.6 67c.5-.2 3-1.8 3.1-2-.8.5-2.6 1.2-3 2m-3.1 0c.7-1 2-1.9 3-2.6l2.2-1.3 1.6-.7h.1l-.1-.2L4.9 64q-1.8 1-3.3 2.6c-.6.4-1.6 1-1.6 2zm.9 40.2-.4-3.1H2zm41-81.1h.2zM41 27.6v.2c.8-.2 1.4-1 2.2-1.4v-.1zm-1.2.8h-.1l-.2.1zm5.9-3.6h-.1v.1zm-1.1.8h-.1l-.8.4zm-26.7 8.5-2-.4s1.7.7 2 .4M.3 23.5q.6 1.2 1.5 2.1c2.3 3 5 5 8.6 7 1.4.7 3 2 4.6 2.3v-.1q-2-.8-4-2-3.8-2.2-7-5-1.7-1.1-2.8-2.8-.4-.8-1-1.4m23.4 10.8c-1.9.3-3.8-.1-5.3-.2.7.5 2 .2 2.7.3a19 19 0 0 0 9.8-1.6c.6-.2 3-1 3.1-1.5a32 32 0 0 1-8.6 2.9zM10.9-6.7c3.3 1 7.6 6 9 9 1.8 4.1 1.6 11.1 8.2 9.5l1.7-.7a10 10 0 0 0 3-2.6c2-2.8 2-7.4-.5-9.6q-1-.8-2.2-1.2c-1-.3-2.1-.2-2.7-1l-1.8-3Q22.5-10 18-12.5c-1.3-.7-2.5-1.7-4.5-1.7l3.1 1.5q2.8 1.4 5.1 3.3 2.1 1.6 3.7 3.8c.6 1 1.1 2.5 2 3.2q.8.4 1.9.4 1.3.3 2.1 1c2.8 2 3 6.6.9 9.5-1.1 1.4-5.4 4.4-8 2.6-2.3-1.6-3-7-4.4-9.8a20 20 0 0 0-7-7.6h-.1c1.3.4 2.4 1.5 3.4 2.3a15 15 0 0 1 5.3 6.9c.8 2 1.5 5.6 3 6.7 2.7 1.9 8-1.6 8.6-3.6l-1.5 1.5c-1.3 1-3.9 3.3-6.4 2.2S22 2.3 20.5-.2C17-5.8 9.3-9.4 0-9.2v.4q3.5-.1 6.7.5l3.3.9c-.5.2-2.7-.2-3.3-.3-2.1-.3-4.8.2-6.7.2v.5l4.1-.2c2.3 0 4.9-.1 6.8.5"/><path fill="#3d6191" d="M4.8-2q7 1.2 8.7 7.4c.3 1.2 0 2.6 0 3.8q0 4 1.4 6.8c.3.5.7 1.3 1.4 1.5l-.8-1q-.8-1.2-1.2-3-.3-2-.3-4.6V6.7c.5.7.3 3.3.5 4.6q.5 3.8 2 6.5c1.8 2.5 6.7 3.4 10.8 2.6 5.2-1 9.9-3.5 12.2-7.3 3.2-5 2.5-15.5-.5-20.2-1.2-2-3.3-3.3-5.3-4.6-.9-.5-3.7-2.5-4.7-2.5.5 1 2.6 1.8 3.6 2.4 2.4 1.5 4.8 3 6.2 5.4q1.3 2.3 1.8 5.3l.4 3a16 16 0 0 1 0 4.5q-.3 2.2-.9 4c-1.5 4.4-5 6.6-9.2 8.4-1.6.7-5.2 1.7-7.8 1.3q-4-.4-6.1-2.6c-1.4-1.9-1.6-4.8-2-7.5l-.3-2.4-1.2-4q-2-4.4-7.2-5.8a7 7 0 0 0-2.9-.3L0-1.8v.5c1.4-.1 3-1 4.8-.6"/><path fill="#3d6191" d="M.8 10.4a3 3 0 0 1 2.3.5c1.7 1.2 1.4 3.9 1.8 6.3q.6 2.8 1.7 5 1.6 2.9 4 4.6c3.8 2.8 9.5 6.5 16.7 4.8q2-.4 3.9-1.1 6.5-2.8 12-6.6c1.8-1.2 3.8-2.4 5-4.3 1-1.6 1.5-4.2 2-6.3.3-1.3.1-2.6.4-4 .2-1.7.3-4.2 0-5.8L50.4.2c-.7-3.4-1.2-6.7-2.5-9.4-.5-1.2-1.8-5-3.2-5q.4.8 1 1.5L47.5-9a51 51 0 0 1 2.4 10l.2 3.4a20 20 0 0 1 0 4.3c-.4 2.5-.2 4.8-1 6.7a12 12 0 0 1-3 3.5l-2.8 2.4q-3.7 2.6-7.9 4.5c-2 1-4 2-6.4 2.6l-3.5.5c-1.3.3-3.2.5-4.7.2a19 19 0 0 1-14-10.9q-.8-2-1.1-4.9C5.4 11.3 6 9 5 7.5S2 6 0 6.3v.5c1.7-.1 3.6-.3 4.5.8 1 1.3.3 3.6.6 5.6l.6 3.6a18 18 0 0 0 11.9 11.9c3.3 1.1 8 1 11.6.2q4.8-1.4 8.6-3.8 3.6-2 7-4.3l2.8-2.6 1.6-1.8-.8 2.5c-2 3.1-5.5 5-8.7 6.8A39 39 0 0 1 28 31c-7 1.8-12.4-1.1-16.3-4q-2-1-3.3-2.7-2.1-2.6-3-6.6c-.9-3.3 0-7-3.6-7.7q-1 0-1.8.3v.4q.4 0 .8-.3m35.8 36.3q-1 .1-2 .6zm12.7-23.5v.1zm.2-1.1v.2zM60 53.2h.1l-.7-2.8c0 1.1.5 1.8.6 2.8m.1-8.2h.2v-.2zm1.7-2.7-1.5 2v.3zm-18.6 0h.7v-.1h-.6zM37 46.6h-.4zM6 94.3l1.3-1.6q1.4-1.5 2.6-3.4l1.1-1.7a31 31 0 0 0-3 4.2c-.6.8-1.6 1.4-2 2.5m.5-48.9a53 53 0 0 0 14.2 3.9c1.9.3 4.5-.4 6-.8a73 73 0 0 0 9.2-3c2.2-1 4.4-2.6 7-3l.1-.2c-2.8.4-5 2-7.4 3A57 57 0 0 1 22.2 49c-2.4.4-5.2-.4-7-.8q-4.8-1.4-9-3.2l-4.1-2L0 41.6v.3l1.7 1z"/><path fill="#3d6191" d="M6.7 41c6.3 3.4 14.7 6.5 23.6 3.7q4.2-1.3 8-3.3c3.4-2 6.8-4.3 10.6-5.9l4.7-1.6 4-.8c2-.6 5-2.3 5.7-4l.2-.1-.8 2.6v.1c3-6.4 1.6-13.8-6.7-13.7l-.8.1q-2 .4-2.5 2.2v1.6q.4 2.3-.9 3.3-1.6 1-3.6 1.7-3.1 1.2-5.6 2.6c-5 3-9.3 6-15.7 7.5-2.1.5-5.3.8-7.7.4l-4-.9c-4-1.2-7.8-3.7-10.8-6l-2.6-2.7c-.6-.6-1-1.6-1.8-2v.6a31 31 0 0 0 16.5 11c3.5 1 8.5.9 11.8 0 6-1.9 10.6-5 15.6-8q2.3-1.2 4.8-2.1 2-.6 3.4-1.6c2.3-1.7 0-5.2 2-6.5q.9-.6 2.4-.7c3.5-.6 6.4 2.6 7 5.1 2.3 9.4-8.6 8.9-14.2 11.3Q43.4 37.7 38 41q-3.5 2-7.8 3c-3.2 1-7.6 1.9-11.6 1Q11 43.2 5 39.6l-3.3-2Q1 36.8.1 36.5v.3c1.6 1.8 4.6 3 6.7 4.2m45.4-3.1 2.6-.2h-.2c-.6.2-1.8-.2-2.4.2"/><path fill="#3d6191" d="M8 29c-.8-1-2.1-1.6-2.9-2.7l-2-2.9-1-1.7c0 .9.7 1.6 1.2 2.2A18 18 0 0 0 8 29.1m8.7 17.2 4 .7c9.4 1.7 15.9-3.4 22.9-5.1l11-1.3q2.4-.2 4.5-.8 1.6-.5 2.8-1.4c2-1.5 4-6 4.6-9 1-4-1-8-3.2-9.8q-.7-.7-1.6-1.3.7.8 1.6 1.4 1.5 1.4 2.2 3.4c1.2 2.6.9 5.7-.1 8.3-.9 2.2-2.2 5.3-4 6.7C58.1 40.5 52 40 47 41c-1.6.3-3 .2-4.5.7-4 1.2-7.5 3-11.7 4.3l-4 .7h-1.7q-1.9.2-3.8 0l-4.4-.8a47 47 0 0 1-10.3-4L0 38.2v.5l5.6 3.2q5 2.9 11.1 4.4m-6.5-15.5q.5.5 1.2.8-.5-.6-1.2-.8"/><path fill="#3d6191" d="M14.3 33q-1.4-.6-2.7-1.4c.2.7 3.5 2 4.2 2.1zm31.2 5.2h-.2zm.3-.1V38h-.1l-.2.2zm.2-.2c.5 0 4.7-2 5-2.3h-.2l-2.6 1.1zm-12-6.5v.1h.1a16 16 0 0 1 3.6-2c.2 0 1.3-.5 1.2-.6zm26.3 79.8c-1.3-2.1-2.8-3.8-3.5-6.6-.5-2 .4-4 .7-5.7.1-.3.2-2.1 0-2.3l-.4 2.8c-.3.9-1 3.3-.8 4.4.3 2 1 3.3 1.5 4.8l.8 1.3q.6 1.5 1.3 2.7c.6 1 1.7 2.2 2.1 3h.1q-.6-1.2-1.5-2.4-1.4-2.2-2.4-4.6c.8.7 1.3 2 1.8 3l3 4.4q1.1 1.3 1.9 3h.5c-.2-1-2-3-2.6-3.9zm-2.8-9.2h-.1m2.3-26.9.3.7q0-.4-.3-.7m.8 27c-.2-1.4.2-3 .5-4 1-3 2.5-5.3 3.7-8.1 1.3-3 1.8-7.8.5-11.2q-1.3-2.6-3-4.6-.7-1.3-1.9-2.4c.6 1.3 1.8 2.4 2.7 3.6 1.5 2 2.1 4.2 2.7 7.3.3 1.8-.2 3.7-.6 4.9-1 3.5-2.7 6-4 9.2a11 11 0 0 0-.9 5.5c.6 3.5 2.4 5.3 4 7.8 1.5 2.3 2.7 5.7 3 9h.4c-.3-3.6-1.7-7-3.3-9.5-1.5-2.4-3.2-4-3.8-7.5"/><path fill="#3d6191" d="M62.8 110.2c-2-2.7-3.8-4.2-4.5-8.2-.3-1.6.3-3.2.7-4.4 1-3.7 2.8-6.4 4-10.1.3-1.2 1-3.4.7-5q-.2-2-.6-3.8A23 23 0 0 0 61 74l-3.5-6c-2.4-4-4.5-8.3-8.3-11-2.6-1.8-8.5-3.5-11.8-.9-2.6 2-1.4 5.7.1 7.9 1.6 2.2 3.6 3.9 5 6.2q1 1.8 1.4 4 .8 2.3 1.2 4.5.1 1.2-.4 2.2-.4 3-1.4 5.7v.2c.7-.7 1.5-4.6 1.8-5.8l.2-1.3c.2.5.2 1.7.1 2.3-.2 1.5-.1 2.7-.5 4l-1 3.1c.8-1 1-3.1 1.4-4.6a20 20 0 0 0-.8-10.1c-.6-1.9-.9-3.5-1.8-5q-2.1-2.7-4.4-5.2c-1.4-1.9-3.3-5.6-.7-7.7 2.7-2 8.9-.4 11 1C54 61.3 56.8 67.8 60 73.4c1.4 2.4 3 5.2 3.3 8.7-1-5.4-4.6-10.3-7.1-14.5-1.7-2.8-3.2-5.8-6-7.6s-8-4.5-11.4-1.2c-.6.6-1.6 1.8-1.3 3.2.1.6.7.8.8 1.4 0-.6-.6-1-.4-1.7.6-3.8 5.3-5 8.9-3q2.4 1.2 4.7 2.8 1.7 1.7 2.9 4l4.3 7c1.8 3.1 3.8 6.6 4.4 10.7.3 1.7-.4 3.6-.8 4.8-1.2 3.4-2.8 6-3.9 9.6-.3 1.2-.9 2.7-.6 4.3.7 4.4 2.7 6 4.8 9q1.3 2 2.2 4.6c.4 1.1 1.3 2.4 1.3 3.7h.6l-1.1-3q-1.1-3.3-2.8-5.9m-22.2-55 .9-.1h2.4c2.6.5 5.4 1.8 6.7 3.5-3-2.2-4.8-3.4-10-3.4"/><path fill="#3d6191" d="M70.8 107.9c-1.2-2.1-2.6-4.2-3.1-7s1.1-5.3 2-6.9q1.5-2.9 2.3-6.5l.2-2.7c.2-1 .2-2.7 0-3.8l-.4-3c-1.2-4.3-3.4-7.7-5.4-11.1a68 68 0 0 0-7.5-10.6c-2.3-2.6-4.7-5.4-8-7a22 22 0 0 0-17.9.3q-2.4 1.1-4.1 2.7c-2.8 2.2-3.4 6.5-1.8 10.3 1.2 2.6 3.2 4.8 4.8 7l2.2 3.6c.7 1.2 2 3.9 1.7 6-.8 4.3-3.7 6.6-6.7 8.6l-1.5 1.3c1.4-2.6 3.3-4.7 4.6-7.3.5-1 1.3-2.4 1-4q-.7-2.7-2.3-4.5c-2.8-3.6-5.3-6.1-6.6-11.3-.9-3.3-.2-8 1.8-9.6q1.2-.9 2.8-1.5l1.6-.6c-2.5.7-4.5 1.2-5.8 3.2a13 13 0 0 0-.8 8c1 4.8 3.3 8 5.9 11.1 1 1.5 3.6 3.7 3 6.5-.5 2.4-1.9 4.2-3 6l-2.6 4.2-1.2 1.2-2 2.4-1.5 1.4a15 15 0 0 0-3.3 4.5c-2.9 6.6.8 13.2.8 20.3h.4c-.5-4.9-1.2-8.8-2-13.3l.1-2.2q0-1.1.2-2.1 1-3.3 2.8-5.6c.6-.7 1.2-1.7 2-2.1a19 19 0 0 0-3.2 14c.7 3.8 2 6.7 2 11.3h.6c0-4.8-1.4-8-2.2-12.1A21 21 0 0 1 29 88.6c3.1-2.3 6.4-4.4 7.3-8.8a9 9 0 0 0-1.2-6c-2-4-4.8-6.7-6.9-10.5-1.8-3.4-2-6.6.3-9.8q1.3-1.6 3.4-2.7 2.6-1.5 5.9-2.2a21 21 0 0 1 12.7 1.2c3 1.3 5.6 4 7.6 6.4l2.4 2.6q3.5 4.9 6.5 10c2 3.6 4 7 4.8 11.9v2.8c0 4.8-1.3 7.3-2.7 10.5-.7 1.6-2.3 4-1.9 6.5.6 3.5 2 5.7 3.6 8.2q1.1 2.3 2.1 4.9c.7 1.5 1.6 3.5 1.5 5.5h.6c-.1-2.4-1-4.5-1.8-6.4q-1-2.5-2.3-4.8M37.2 60H37"/><path fill="#3d6191" d="M55.2 99c.2-.3.6-1 .5-1.2zm.8 3.2v.3zm1.5 9.8c.6.8 1.1 2.1 2 2.6-1.2-2.2-3.3-4-4.3-6.3l-1-2.7q0-.9-.2-1.5c.3 3.7 2 5.6 3.5 8m2.6-36.2c.1 1 1.1 1.7 1.2 2.8.4-.1-.8-2.7-1.2-2.8M54.4 102h-.2v.1zm7.8-20.7c.2-.4-.4-2.3-.7-2.5v.1c.1.8.8 1.5.6 2.4M26.2 54v.1M54.5 101q.3-.4.2-1zm35.1-.7q2.3-3.4 7-4.6l2.6-.7c2.3-1 4.2-2.5 6.9-3.1 1-.3 2.3 0 3.4 0q2.8-.2 4.6-1.2c2.7-1.5 5-4 6.9-6.4l5-5.4a52 52 0 0 1 8.2-8c1.4-1.1 2.5-2.8 4.1-3.9q1.5-.7 3.5-1c1-.2 2.9-.3 4 0 2.3.7 4 2.6 5.8 4 1 .8 2.2 2.2 2.8 3.5l.9 3.3-.2-1A9 9 0 0 0 153 71a17 17 0 0 0-7-5.3c-1-.3-2.7-.2-3.8 0q-2 .2-3.4.8c-2 1-3.3 3-5 4.3q-3.6 2.8-6.4 6.4l-3 3.2-3.7 3.8a22 22 0 0 1-7 6.2q-1.4.7-3.3.9H106c-1.8.5-3 1.2-4.6 1.7l-3.7 1c-3.6 1.1-7.2 2.8-8.6 6.2-1.4 3.1-.3 5.5 1.1 7.8 1.8 2.8 4.4 6.2 3.7 11h.6c0-5.6-1.8-8.3-4.1-11.8-1.2-1.8-2.1-4.6-.7-7m8.7-6q1.5-.1 2.5-.7h.2c-1.1 1-2.9 1.1-4.4 1.6q-2.7.8-4.8 2.1c1-1.2 4.7-2.5 6.5-3m-42.6 7.9q.4-.4.4-1.3.3-1.8.9-3.5c1.3-3.6 3-6.6 4.3-10.2.2-.7 1.2-3.3.8-4.2l-1.3 5-3.5 7.6c-.9 2.2-1.1 4.3-1.6 6.6M32.7 74.4q0-.3-.3-.4zM81.4 98q.7-2.1 2-3.9c-1.7 1-3 5.6-2.4 8.4 1 4.8 4 7.3 5.6 11.4.3.8.6 2.3.3 3.5q0 1-.3 1.7h.4l.4-1.7q.2-2.4-.6-4.1c-1.7-4-7.3-9.1-5.4-15.2M18.1 84.2c1-4.3-2.5-7.5-5.2-8.7-1.1-.4-3.3-1-4.8-.3q-1 .6-1.7 1.5A31 31 0 0 0 1.9 82L0 85.2v.6c1-.6 1.3-1.8 2-2.8a19 19 0 0 1 3.4-4.5Q6 78.2 7 78c4-1.5 7.4 0 8.3 3.4 1 3.5-.7 6.5-2.7 7.9L10.8 91c-2.7 2-5.4 4.3-6.3 8.1-1.3 5.3.7 9.3 1.8 13.1q.7 2.4.7 5.4v1.6h.3q.2-4.1-.7-7.4c-1-3.4-2.9-7.2-1.8-12 1-4.1 3.6-6.6 6.4-8.8 1.4-1.1 3.3-2.6 4-4.3l.5-2a6.5 6.5 0 0 0-4.2-7.5c-2-.6-4.1.3-5.6.7A10 10 0 0 1 9 75.6c1.4-.4 2.9.1 3.8.5 2.5 1 5.8 4 4.9 8.2-.7 3.1-3.6 4.8-5.8 6.6A13 13 0 0 0 8 96q-1 3-1.6 6.2c-.5 2.4.3 5.3.8 7l1.4 6.9c.2 1.1-.2 2-.2 3H9c0-1 .5-1.9.3-3q-.5-2.9-1.2-5.5c-.5-2.2-1.6-5.5-1-8.4q.5-3.4 1.6-6.2 1.3-3.1 3.6-5c2.3-1.8 5.1-3.5 5.8-6.8m54.4 22.2c-1.2-1.7-2.2-3-2.6-5.5-.4-2.3 1.4-5.2 2.1-6.6q1.2-2.6 2-5.5c.3-.7 1.1-4.3.6-5l-.2 3q-.6 3.2-2 5.9c-.8 2.1-3.5 6-2.5 9.4q.8 2.2 2 3.9c1.8 2.6 4.2 5.5 5 9q.5 1.8.2 4.1h.2v-2.4q-.2-2.7-1.2-4.6-1.7-3-3.6-5.7m10.3-14.3h-.2l-.6.6h.1q.4 0 .7-.6"/><path fill="#3d6191" d="M81.6 106.5c-1.2-2-2.9-5.4-1.8-8.6 1-3 3-5.8 5.6-7.3 3-1.8 7.2-2.1 10.7-3.5q3.4-1.6 5.4-4.4l1.5-2c-.6.1-1.2 1.2-1.6 1.7q-1.5 1.8-3.4 3.1c-2.3 1.5-5.3 1.8-8.1 2.7l-4 1.7c.8-.5 1.4-1.5 2.4-1.8q0-.2.2-.3-1.2.5-2 1.2l-3 1.9a21 21 0 0 0-4.9 4q-1.1 1.4-2 3.3c-.8 2.2.4 5.5 1.1 7l2 4h.1l.6 1.2 1.2 2c1 2 2.5 3.7 2.5 6.7h.4c0-3-1.3-4.8-2.5-6.8l-3.3-6c-1.6-2.8-2.4-5.6-1-9.1V97c-.7.5-.6 1.8-1 2.7v.1c0-3.6 5-7.4 7.5-8.8-1.6 1.7-3.3 3.1-4.4 5.5-1.3 3-.7 6.2.6 8.8 2 3.8 5.5 7.5 5.2 13q-.2-1.6-.6-3c-1.2-3.1-3-5.6-4.6-8.6-1-2-2.4-4.7-1.7-8q.6-2.6 1.8-4.5c.4-.5 1.2-.9 1.4-1.4q-1.1.5-1.9 1.5c-1.6 2-2.4 6.5-1.3 9.7 1.5 4.2 4.2 7.1 6 11q.5 1.8.6 4.1h.5c0-.8.4-1.7.2-2.8-.7-4-2.6-6.8-4.4-9.8m-44.8-16h-.1m-6.4 8.7-.6 6h.2c.2-1 .7-5.6.4-6m13-12.3q-.3.1-.3.6z"/><path fill="#3d6191" d="M33.3 95.6q.8-.9 1.7-1.6l2-2q2.2-1.8 3.8-4l1.5-3.2q1-2.4 1.7-5.3c.2-.5.7-1.4.4-2v-.2l-.4 1.4q-.1-.7.1-1.5v-1.9c-.4.2-.3 1-.3 1.5q0 1.7-.4 3.2-.7 3.4-2.4 6l-2.6 2.9-.7.7c.7-.1 3-2.6 3.3-3.3 0 .8-1.5 2.5-2 3q-2.5 2.8-5.5 5.3l-2.3 2c1-1.5 3.1-3.3 4.5-4.4l1.5-1.5q.8-.5 1.4-1.4c-1.3.6-2 1.9-3.2 2.7a20 20 0 0 0-7.1 8.8 9 9 0 0 0-.8 5.3c.7 4 2.6 8.4 2.3 13h.6q-.2-4.4-1.2-8.1c-.9-3.3-1.8-6.8-.3-10.3 1-2.5 2.4-3.6 4.4-5.1m9.6-4.6q-.5 1-.8 2.1c.3-.3 1-1.6.8-2"/><path fill="#3d6191" d="M23.6 98.5c1.3-3 4.1-6.3 6.5-8.2l1.6-1.6c2.6-2 5-4.7 5.9-8.4.6-3.1-.5-6-1.6-8l-2.3-3.5c-2.2-3-4.5-5.3-5.2-9.7-.4-2.5 1.5-5.3 2.5-6.6.5-.6 1.6-1.1 1.8-1.8-1 .2-1.7 1.3-2.3 2-1.5 2-3 5-2 8.5 1.5 5 5.7 7.6 7.7 12.2.6 1.5 1.6 3.5 1.2 5.9-.8 4.5-3.5 7.2-6.4 9.6q-1.8 1.4-3.2 3.3c-1.6 2-3.5 3.7-4.6 6.3-1 2.3-2 5.8-1.4 9 .7 4 1.7 7.2 1.5 11.6h.3c0-3-.2-5.3-.7-7.7-.5-2-1.3-4.5-.9-7.1q.5-3.2 1.6-5.8m-9.1 1.8c0 1.2-.1 4.4.5 4.9l-.3-2.1zM14 67l-2-.2-1.2.2c-1.5.2-4.2.7-5 1.6q3.5-1.4 8.2-1.5zm10.4 22.7-.2.2zM12.7 77.4l1.1.7 1.1 1.1a4 4 0 0 0-2.2-1.8M12.5 89c1-.8 3.2-5.7 1.7-7.2l.4 1.2c.3 1.5-1 4.2-1.5 5z"/><path fill="#3d6191" d="M17.2 99.5q1.3-3.3 3.4-6.1c2.5-3.2 6.4-7 5.3-13.2A19 19 0 0 0 16.7 67a11 11 0 0 0-8-1c-2 .5-3.2 1.7-4.7 2.8q-2.3 1.4-4 3.3v.6c.6-.2 1.6-1.6 2.2-2l2-1.4c1.6-1.2 3-2.4 5.2-3 2.5-.7 5.2.4 6.8 1.3a17 17 0 0 1 8.3 9.6c.8 1.8 1.4 4.8.8 7.3-1 4-3.5 6.2-5.6 9.1a24 24 0 0 0-4.1 9.5c-.8 3.8.3 8.6 1.1 11.9q.7 1.8.7 4.1h.6c0-2.1-.6-4.1-1-6-1.2-4.6-1.5-9.4.2-13.6m-2-32.8L13 66a9 9 0 0 1 5 2.3z"/><path fill="#3d6191" d="M24.4 89.5h.1q.3-.1.2-.3zm1-1.8c0-.2.4-.8.2-.9l-.2.8zM51.6 82c0 6.7-3.4 9.5-5.8 14a14 14 0 0 0-1 9.8 18 18 0 0 0 2 4c.6 1 2 3.4 2.9 3.9l-2.3-3.2a14 14 0 0 1-2.6-11.1c1.3-5 4.6-7.7 6.4-12 .2-.7 1-4.8.4-5.4m.1-19.4c.5 1 1.7 1.6 2 2.6h.2a9 9 0 0 0-2.2-2.6m2.8 31.8c.1-.2.8-1 .7-1.2-1 1.6-3.1 2.9-3.5 5l1.2-1.9zm-3.7 5.2"/><path fill="#3d6191" d="M54.5 109.4c-1-1.7-2.6-3.7-2.3-6.7.6-7 6.2-10 7.5-16.7a13 13 0 0 0-.2-5.9l-1.4-3q-1.3-3.9-3-7l-2-2.8-.2-.6c-.6-1.3-2.6-3.2-3.7-4-1.4-1-4.5-3-7-2.3-2.3.5-1.8 3-1 4.5l2.5 3.4c2.3 3 4.4 6.3 5.2 10.6.2 1 .1 2.4.2 3.3.5 5-2.2 8-4 11q-1.8 3.2-2.4 7.7c-.3 1.5.3 3.7.6 4.8q2 5.6 4.9 10.1c.5.8 1.6 2.3 1.7 3.3h.5l-.7-1.4L48 115l-1.6-2.6 1 1.4 2 3.5c.4.5 1 1.2 1 2h.5q-.6-2.1-1.9-3.8c-1.8-3-4-5.6-5.1-9.3-.5-1.4-1-3.5-.7-5.4q.5-4.3 2.4-7.3 1.5-2.2 2.8-4.7c1.1-2.5 1.6-6.6 1-10-1.1-5.3-4-8.8-6.7-12.4-.6-.7-2.5-3.4-1.7-4.9.7-1 3-.7 4.2-.4a14 14 0 0 1 6.4 4.6l1.1 1.4q-.7-.5-1.1-1.4l-.7-.8-.3-.2c0 .6.7 1 1 1.5l2.4 3.3q1.9 3.2 3.2 7c.8 2 2.1 4.5 1.8 7.5-.6 5.3-2.8 8.5-5 12l-1.7 2c-.7 1.3-1.5 4.3-1.1 6.4.6 3.6 2.4 5.5 4.2 8l1.7 2.7c.5.8 2 3.2 2 4.1h.5l-1.4-3c.5.4 1.5 2.3 1.5 3h.4q-1-2.9-2.8-5zM59 80.2c1 1.5.1 5.6-.2 7.1.3-2.1.7-4.9.2-7.1m-6 28a10 10 0 0 1-1.4-4.3q-.2-2.5.7-4.8l.8-1.5-.7 1.8-.7 3a7 7 0 0 0 .1 2.7c.5 2 1.7 3.6 2.4 5zm5.5-35 .1.2h.1zm-6.1-9 2.1 3h.1a9 9 0 0 0-2.2-3m-2-2 2 2a5 5 0 0 0-2-2m8.8 12.1-.4-.7-.1.1zM42.4 88.9v-.2zm.2-.4v-.3z"/><path fill="#3d6191" d="M44.3 113a21 21 0 0 1-2.4-6l-.5-4q-.2-1.5.2-2.9.3-1.8.8-3.4c1.2-2.8 3.1-5 4.6-7.4.9-1.5 1-3.2 1.5-5.2V84c-.3.2-.3 1.4-.4 1.7q-.6 2.1-1.5 3.8c-1.6 2.7-3.8 5-4.8 8.2-1.7 6 .2 12.1 2.6 16L47 118c.2.3.4 1.2 1 1.2q-.4-1-1-1.7z"/><path fill="#3d6191" d="M38.2 107a22 22 0 0 1 .7-10.3c.4-1.4 1.1-2.6 1.1-4.4l-.4-.3c-1 0-3.1 2.6-3.7 3.4-3.7 4.6-6 9.7-3.7 17.4l1.6 4.1 1.1 2.2h.6l-1.5-3q-1.4-3.2-2.1-7c-1.2-6.1 2-10.6 4.5-13.8.7-.8 2.2-2.7 3.2-3l.1.1c.2 1.1-.8 3-1 3.9-1 2.7-1.8 6.8-1 10.2a24 24 0 0 0 4 8.9l3.1 3.7h.3c0-.8-2.1-2.8-2.7-3.6a25 25 0 0 1-4.2-8.5"/><path fill="#3d6191" d="m38.6 107.2.5 1.9h.1l-.4-1.8-.4-3.2.3-3c-.5 1.8-.5 4.4 0 6.1"/></g><defs><clipPath id="a"><path fill="#fff" d="M0 0h100v105H0z"/></clipPath></defs></svg>